<?xml version="1.0" encoding="UTF-8" standalone="no"?>
<svg
   xmlns:dc="http://purl.org/dc/elements/1.1/"
   xmlns:cc="http://creativecommons.org/ns#"
   xmlns:rdf="http://www.w3.org/1999/02/22-rdf-syntax-ns#"
   xmlns:svg="http://www.w3.org/2000/svg"
   xmlns="http://www.w3.org/2000/svg"
   xmlns:sodipodi="http://sodipodi.sourceforge.net/DTD/sodipodi-0.dtd"
   xmlns:inkscape="http://www.inkscape.org/namespaces/inkscape"
   enable-background="new 0 0 32 32"
   height="32px"
   id="Слой_1"
   version="1.1"
   viewBox="0 0 32 32"
   width="32px"
   xml:space="preserve"
   inkscape:version="0.91 r13725"
   sodipodi:docname="therefore.svg"><metadata
     id="metadata20"><rdf:RDF><cc:Work
         rdf:about=""><dc:format>image/svg+xml</dc:format><dc:type
           rdf:resource="http://purl.org/dc/dcmitype/StillImage" /></cc:Work></rdf:RDF></metadata><defs
     id="defs18" /><sodipodi:namedview
     pagecolor="#ffffff"
     bordercolor="#666666"
     borderopacity="1"
     objecttolerance="10"
     gridtolerance="10"
     guidetolerance="10"
     inkscape:pageopacity="0"
     inkscape:pageshadow="2"
     inkscape:window-width="852"
     inkscape:window-height="690"
     id="namedview16"
     showgrid="false"
     inkscape:zoom="7.375"
     inkscape:cx="16"
     inkscape:cy="16"
     inkscape:window-x="0"
     inkscape:window-y="511"
     inkscape:window-maximized="0"
     inkscape:current-layer="Слой_1" /><path
     clip-rule="evenodd"
     d="M31.705,15.284L31.705,15.284L31.705,15.284  l-9.97-9.991c-0.634-0.66-1.748-0.162-1.723,0.734v4.976C20.008,11.002,20.004,11,20,11H1c-0.55,0-1,0.45-1,1v8c0,0.55,0.45,1,1,1  h19c0.004,0,0.008-0.002,0.012-0.002v4.972c-0.024,0.892,1.082,1.376,1.715,0.742l9.977-9.999  C32.098,16.318,32.098,15.678,31.705,15.284z M22.017,23.564V19H22h-1h-0.988v0.002C20.008,19.002,20.004,19,20,19h-1H2v-6h17h1  c0.004,0,0.008-0.002,0.012-0.002V13H21h1h0.017V8.432l7.55,7.566L22.017,23.564z"
     fill="#121313"
     fill-rule="evenodd"
     id="Arrow_Right"
     style="opacity:0.8" /><g
     id="g4" /><g
     id="g6" /><g
     id="g8" /><g
     id="g10" /><g
     id="g12" /><g
     id="g14" /></svg>